<svg width="24" height="20" viewBox="0 0 24 20" fill="none" xmlns="http://www.w3.org/2000/svg">
<g id="Icon_awesome-crown">
<path fill-rule="evenodd" clip-rule="evenodd" d="M20.1188 7.1927C20.1188 6.26113 20.874 5.50594 21.8055 5.50594C22.4081 5.50594 22.965 5.82743 23.2663 6.34932C23.5676 6.8712 23.5676 7.51419 23.2663 8.03608C22.965 8.55796 22.4081 8.87946 21.8055 8.87946C21.7148 8.87723 21.6243 8.86783 21.535 8.85134L18.9943 15.6265H5.50018L2.95942 8.85134C2.87013 8.86783 2.77968 8.87723 2.68892 8.87946C1.94099 8.88035 1.28178 8.38861 1.0695 7.67144C0.857222 6.95427 1.14256 6.18295 1.77048 5.7766C2.39839 5.37025 3.21892 5.42592 3.78619 5.91336C4.35346 6.4008 4.53201 7.20359 4.2248 7.88552L6.76556 9.41047C7.02466 9.56548 7.33522 9.60978 7.62733 9.5334C7.91943 9.45703 8.16856 9.26639 8.31863 9.0044L11.1827 3.99504C10.6291 3.54451 10.419 2.79431 10.658 2.12178C10.8971 1.44925 11.5336 1 12.2474 1C12.9611 1 13.5976 1.44925 13.8367 2.12178C14.0758 2.79431 13.8657 3.54451 13.3121 3.99504L16.1761 9.00596C16.3259 9.26822 16.5749 9.45919 16.8671 9.53586C17.1592 9.61254 17.4699 9.56847 17.7292 9.4136L20.2749 7.88833C20.1729 7.67058 20.1196 7.43318 20.1188 7.1927ZM4.93784 16.7509H19.5564C19.8666 16.7518 20.1178 17.003 20.1187 17.3132V18.4377C20.1178 18.7479 19.8666 18.9991 19.5564 19H4.93784C4.62767 18.9991 4.37645 18.7479 4.37559 18.4377V17.3132C4.37645 17.003 4.62767 16.7518 4.93784 16.7509Z" fill="#FAFAFA"/>
<path d="M20.1188 7.1927H19.6188L19.6188 7.1944L20.1188 7.1927ZM23.2663 6.34932L22.8333 6.59932L22.8333 6.59932L23.2663 6.34932ZM23.2663 8.03608L22.8333 7.78608L22.8333 7.78608L23.2663 8.03608ZM21.8055 8.87946L21.7933 9.37946H21.8055V8.87946ZM21.535 8.85134L21.6258 8.35966L21.2139 8.2836L21.0669 8.67578L21.535 8.85134ZM18.9943 15.6265V16.1265H19.3408L19.4624 15.8021L18.9943 15.6265ZM5.50018 15.6265L5.03202 15.8021L5.15368 16.1265H5.50018V15.6265ZM2.95942 8.85134L3.42758 8.67578L3.28051 8.2836L2.86863 8.35966L2.95942 8.85134ZM2.68892 8.87946L2.68951 9.37959L2.70117 9.37931L2.68892 8.87946ZM1.0695 7.67144L1.54894 7.52953L1.0695 7.67144ZM1.77048 5.7766L1.49883 5.35683L1.49883 5.35683L1.77048 5.7766ZM3.78619 5.91336L3.46033 6.29259L3.46033 6.29259L3.78619 5.91336ZM4.2248 7.88552L3.76893 7.68015L3.58634 8.08546L3.96749 8.31423L4.2248 7.88552ZM6.76556 9.41047L6.50825 9.83918L6.50887 9.83955L6.76556 9.41047ZM7.62733 9.5334L7.50084 9.04967H7.50084L7.62733 9.5334ZM8.31863 9.0044L8.75249 9.25293L8.75269 9.25257L8.31863 9.0044ZM11.1827 3.99504L11.6167 4.24321L11.8273 3.87497L11.4983 3.60723L11.1827 3.99504ZM10.658 2.12178L10.1869 1.9543V1.9543L10.658 2.12178ZM13.8367 2.12178L14.3078 1.9543V1.9543L13.8367 2.12178ZM13.3121 3.99504L12.9965 3.60723L12.6675 3.87494L12.878 4.24315L13.3121 3.99504ZM16.1761 9.00596L16.6103 8.75796L16.6102 8.75785L16.1761 9.00596ZM16.8671 9.53586L16.994 9.05224L16.994 9.05224L16.8671 9.53586ZM17.7292 9.4136L17.9856 9.84285L17.9862 9.84251L17.7292 9.4136ZM20.2749 7.88833L20.5319 8.31724L20.9194 8.0851L20.7277 7.67613L20.2749 7.88833ZM19.5564 16.7509L19.5578 16.2509H19.5564V16.7509ZM4.93784 16.7509V16.2509L4.93646 16.2509L4.93784 16.7509ZM20.1187 17.3132H20.6187L20.6187 17.3118L20.1187 17.3132ZM20.1187 18.4377L20.6187 18.4391V18.4377H20.1187ZM19.5564 19V19.5L19.5578 19.5L19.5564 19ZM4.93784 19L4.93646 19.5H4.93784V19ZM4.37559 18.4377H3.87559L3.87559 18.4391L4.37559 18.4377ZM4.37559 17.3132L3.87559 17.3118V17.3132H4.37559ZM21.8055 5.00594C20.5978 5.00594 19.6188 5.98498 19.6188 7.1927H20.6188C20.6188 6.53727 21.1501 6.00594 21.8055 6.00594V5.00594ZM23.6993 6.09932C23.3087 5.42273 22.5868 5.00594 21.8055 5.00594V6.00594C22.2295 6.00594 22.6213 6.23213 22.8333 6.59932L23.6993 6.09932ZM23.6993 8.28608C24.0899 7.60949 24.0899 6.7759 23.6993 6.09932L22.8333 6.59932C23.0453 6.9665 23.0453 7.41889 22.8333 7.78608L23.6993 8.28608ZM21.8055 9.37946C22.5868 9.37946 23.3087 8.96266 23.6993 8.28608L22.8333 7.78608C22.6213 8.15326 22.2295 8.37946 21.8055 8.37946V9.37946ZM21.4442 9.34303C21.5594 9.3643 21.6761 9.37643 21.7933 9.37931L21.8178 8.37961C21.7534 8.37803 21.6892 8.37136 21.6258 8.35966L21.4442 9.34303ZM19.4624 15.8021L22.0032 9.02691L21.0669 8.67578L18.5261 15.4509L19.4624 15.8021ZM5.50018 16.1265H18.9943V15.1265H5.50018V16.1265ZM2.49126 9.02691L5.03202 15.8021L5.96834 15.4509L3.42758 8.67578L2.49126 9.02691ZM2.70117 9.37931C2.81829 9.37643 2.935 9.3643 3.05021 9.34303L2.86863 8.35966C2.80527 8.37136 2.74107 8.37803 2.67666 8.37961L2.70117 9.37931ZM0.590064 7.81335C0.86527 8.74311 1.71988 9.38062 2.68951 9.37946L2.68832 8.37946C2.16209 8.38009 1.6983 8.03411 1.54894 7.52953L0.590064 7.81335ZM1.49883 5.35683C0.684783 5.88363 0.314858 6.88359 0.590064 7.81335L1.54894 7.52953C1.39959 7.02495 1.60034 6.48227 2.04213 6.19637L1.49883 5.35683ZM4.11205 5.53413C3.37662 4.9022 2.31287 4.83003 1.49883 5.35683L2.04213 6.19637C2.48391 5.91047 3.06121 5.94964 3.46033 6.29259L4.11205 5.53413ZM4.68068 8.09089C5.07895 7.20682 4.84748 6.16606 4.11205 5.53413L3.46033 6.29259C3.85945 6.63554 3.98507 7.20036 3.76893 7.68015L4.68068 8.09089ZM7.02287 8.98176L4.48211 7.45681L3.96749 8.31423L6.50825 9.83918L7.02287 8.98176ZM7.50084 9.04967C7.33862 9.09208 7.16615 9.06748 7.02226 8.9814L6.50887 9.83955C6.88318 10.0635 7.33181 10.1275 7.75381 10.0171L7.50084 9.04967ZM7.88477 8.75588C7.80142 8.90138 7.66307 9.00725 7.50084 9.04967L7.75381 10.0171C8.1758 9.90681 8.53569 9.63141 8.75249 9.25293L7.88477 8.75588ZM10.7486 3.74687L7.88457 8.75623L8.75269 9.25257L11.6167 4.24321L10.7486 3.74687ZM10.1869 1.9543C9.87699 2.82619 10.1494 3.79877 10.8671 4.38285L11.4983 3.60723C11.1088 3.29025 10.961 2.76243 11.1292 2.28925L10.1869 1.9543ZM12.2474 0.5C11.322 0.5 10.4969 1.08242 10.1869 1.9543L11.1292 2.28925C11.2974 1.81608 11.7452 1.5 12.2474 1.5V0.5ZM14.3078 1.9543C13.9979 1.08242 13.1727 0.5 12.2474 0.5V1.5C12.7496 1.5 13.1974 1.81608 13.3656 2.28925L14.3078 1.9543ZM13.6277 4.38285C14.3454 3.79877 14.6178 2.82619 14.3078 1.9543L13.3656 2.28925C13.5338 2.76243 13.386 3.29025 12.9965 3.60723L13.6277 4.38285ZM16.6102 8.75785L13.7462 3.74693L12.878 4.24315L15.742 9.25408L16.6102 8.75785ZM16.994 9.05224C16.8318 9.00966 16.6935 8.9036 16.6103 8.75796L15.742 9.25397C15.9584 9.63283 16.3181 9.90871 16.7401 10.0195L16.994 9.05224ZM17.4728 8.98434C17.3288 9.07035 17.1562 9.09482 16.994 9.05224L16.7401 10.0195C17.1622 10.1302 17.611 10.0666 17.9856 9.84285L17.4728 8.98434ZM20.018 7.45942L17.4722 8.98469L17.9862 9.84251L20.5319 8.31724L20.018 7.45942ZM19.6188 7.1944C19.6198 7.50765 19.6893 7.81689 19.8222 8.10053L20.7277 7.67613C20.6565 7.52427 20.6193 7.3587 20.6188 7.19099L19.6188 7.1944ZM19.5564 16.2509H4.93784V17.2509H19.5564V16.2509ZM20.6187 17.3118C20.6171 16.7266 20.143 16.2526 19.5578 16.2509L19.555 17.2509C19.5901 17.251 19.6186 17.2795 19.6187 17.3146L20.6187 17.3118ZM20.6187 18.4377V17.3132H19.6187V18.4377H20.6187ZM19.5578 19.5C20.143 19.4983 20.6171 19.0243 20.6187 18.4391L19.6187 18.4363C19.6186 18.4714 19.5901 18.4999 19.555 18.5L19.5578 19.5ZM4.93784 19.5H19.5564V18.5H4.93784V19.5ZM3.87559 18.4391C3.87721 19.0243 4.35123 19.4983 4.93646 19.5L4.93923 18.5C4.90412 18.4999 4.87568 18.4714 4.87559 18.4363L3.87559 18.4391ZM3.87559 17.3132V18.4377H4.87559V17.3132H3.87559ZM4.93646 16.2509C4.35123 16.2526 3.87721 16.7266 3.87559 17.3118L4.87559 17.3146C4.87568 17.2795 4.90412 17.251 4.93923 17.2509L4.93646 16.2509Z" fill="#94D073"/>
</g>
</svg>
