<svg width="34" height="37" viewBox="0 0 34 37" fill="none" xmlns="http://www.w3.org/2000/svg">
<path d="M20.6941 6.36234C20.9231 6.70751 20.8289 7.17295 20.4837 7.40193L14.8588 11.1333C14.5137 11.3623 14.0482 11.2681 13.8192 10.9229C13.5903 10.5778 13.6845 10.1123 14.0296 9.88334L19.0295 6.56655L15.7127 1.56666C15.4837 1.22149 15.5779 0.756056 15.9231 0.527076C16.2683 0.298101 16.7337 0.392294 16.9627 0.737464L20.6941 6.36234ZM11.2898 7.85076L11.6114 8.52833L11.2898 7.85076ZM3.46619 22.6995L2.72551 22.8174L3.46619 22.6995ZM7.54451 30.5478L8.0667 30.0095L8.0667 30.0095L7.54451 30.5478ZM15.5134 34.3853L15.6087 33.6414L15.5134 34.3853ZM24.1922 32.6802L24.5619 33.3328L24.1922 32.6802ZM30.117 26.1132L29.43 25.8124L30.117 26.1132ZM30.1928 17.4764C30.0983 17.0731 30.3487 16.6695 30.752 16.5751C31.1552 16.4806 31.5588 16.7309 31.6533 17.1342L30.1928 17.4764ZM19.9203 7.51204C17.1136 6.94403 14.1984 7.30059 11.6114 8.52833L10.9682 7.17319C13.8482 5.80646 17.0934 5.40953 20.2179 6.04184L19.9203 7.51204ZM11.6114 8.52833C9.02428 9.75607 6.90459 11.7889 5.56973 14.3224L4.24267 13.6232C5.72864 10.8029 8.0883 8.53992 10.9682 7.17319L11.6114 8.52833ZM5.56973 14.3224C4.23488 16.8558 3.75672 19.7536 4.20686 22.5816L2.72551 22.8174C2.22441 19.6692 2.7567 16.4434 4.24267 13.6232L5.56973 14.3224ZM4.20686 22.5816C4.65701 25.4096 6.01123 28.0157 8.0667 30.0095L7.02231 31.0862C4.73414 28.8666 3.22662 25.9655 2.72551 22.8174L4.20686 22.5816ZM8.0667 30.0095C10.1222 32.0033 12.7683 33.2775 15.6087 33.6414L15.4181 35.1292C12.2561 34.7242 9.31048 33.3057 7.02231 31.0862L8.0667 30.0095ZM15.6087 33.6414C18.4491 34.0052 21.3309 33.439 23.8226 32.0277L24.5619 33.3328C21.7881 34.904 18.5801 35.5342 15.4181 35.1292L15.6087 33.6414ZM23.8226 32.0277C26.3142 30.6163 28.2816 28.4357 29.43 25.8124L30.8041 26.414C29.5257 29.3342 27.3356 31.7617 24.5619 33.3328L23.8226 32.0277ZM29.43 25.8124C30.5784 23.1892 30.846 20.2645 30.1928 17.4764L31.6533 17.1342C32.3804 20.238 32.0825 23.4938 30.8041 26.414L29.43 25.8124Z" fill="white"/>
<path d="M12.967 26V17.068L11.07 18.209V17.054L12.967 15.92H14.01V26H12.967ZM19.6401 26.21C19.1174 26.21 18.6344 26.1027 18.1911 25.888C17.7477 25.6733 17.3697 25.377 17.0571 24.999C16.7444 24.621 16.5204 24.187 16.3851 23.697L17.3721 23.431C17.4607 23.795 17.6217 24.11 17.8551 24.376C18.0884 24.6373 18.3614 24.8403 18.6741 24.985C18.9914 25.1297 19.3227 25.202 19.6681 25.202C20.1161 25.202 20.5174 25.0947 20.8721 24.88C21.2314 24.6607 21.5161 24.3713 21.7261 24.012C21.9361 23.6527 22.0411 23.2583 22.0411 22.829C22.0411 22.3857 21.9314 21.9867 21.7121 21.632C21.4927 21.2727 21.2034 20.988 20.8441 20.778C20.4847 20.568 20.0927 20.463 19.6681 20.463C19.1921 20.463 18.7814 20.568 18.4361 20.778C18.0907 20.9833 17.8154 21.2423 17.6101 21.555L16.6721 21.163L16.9801 15.92H22.3631V16.907H17.4351L17.9461 16.424L17.6731 20.897L17.4141 20.554C17.7034 20.2227 18.0534 19.9637 18.4641 19.777C18.8747 19.5903 19.3064 19.497 19.7591 19.497C20.3797 19.497 20.9397 19.6463 21.4391 19.945C21.9384 20.239 22.3351 20.638 22.6291 21.142C22.9231 21.646 23.0701 22.2083 23.0701 22.829C23.0701 23.445 22.9137 24.0097 22.6011 24.523C22.2884 25.0317 21.8731 25.44 21.3551 25.748C20.8371 26.056 20.2654 26.21 19.6401 26.21Z" fill="white"/>
</svg>
