<svg width="33" height="37" viewBox="0 0 33 37" fill="none" xmlns="http://www.w3.org/2000/svg">
<path d="M13.0968 6.36234C12.8679 6.70751 12.9621 7.17295 13.3072 7.40193L18.9321 11.1333C19.2773 11.3623 19.7427 11.2681 19.9717 10.9229C20.2007 10.5778 20.1065 10.1123 19.7613 9.88334L14.7614 6.56655L18.0782 1.56666C18.3072 1.22149 18.213 0.756056 17.8678 0.527076C17.5226 0.298101 17.0572 0.392294 16.8282 0.737464L13.0968 6.36234ZM22.5011 7.85076L22.1796 8.52833L22.5011 7.85076ZM30.3247 22.6995L31.0654 22.8174L30.3247 22.6995ZM26.2464 30.5478L25.7242 30.0095L25.7242 30.0095L26.2464 30.5478ZM18.2775 34.3853L18.1822 33.6414L18.2775 34.3853ZM9.59871 32.6802L9.22906 33.3328L9.59871 32.6802ZM3.67391 26.1132L4.36096 25.8124L3.67391 26.1132ZM3.59812 17.4764C3.6926 17.0731 3.44226 16.6695 3.03897 16.5751C2.63568 16.4806 2.23215 16.7309 2.13766 17.1342L3.59812 17.4764ZM13.8706 7.51204C16.6773 6.94403 19.5925 7.30059 22.1796 8.52833L22.8227 7.17319C19.9427 5.80646 16.6975 5.40953 13.5731 6.04184L13.8706 7.51204ZM22.1796 8.52833C24.7666 9.75607 26.8863 11.7889 28.2212 14.3224L29.5483 13.6232C28.0623 10.8029 25.7026 8.53992 22.8227 7.17319L22.1796 8.52833ZM28.2212 14.3224C29.556 16.8558 30.0342 19.7536 29.5841 22.5816L31.0654 22.8174C31.5665 19.6692 31.0342 16.4434 29.5483 13.6232L28.2212 14.3224ZM29.5841 22.5816C29.1339 25.4096 27.7797 28.0157 25.7242 30.0095L26.7686 31.0862C29.0568 28.8666 30.5643 25.9655 31.0654 22.8174L29.5841 22.5816ZM25.7242 30.0095C23.6687 32.0033 21.0227 33.2775 18.1822 33.6414L18.3728 35.1292C21.5348 34.7242 24.4804 33.3057 26.7686 31.0862L25.7242 30.0095ZM18.1822 33.6414C15.3418 34.0052 12.46 33.439 9.96836 32.0277L9.22906 33.3328C12.0028 34.904 15.2109 35.5342 18.3728 35.1292L18.1822 33.6414ZM9.96836 32.0277C7.47671 30.6163 5.50936 28.4357 4.36096 25.8124L2.98686 26.414C4.26527 29.3342 6.45534 31.7617 9.22906 33.3328L9.96836 32.0277ZM4.36096 25.8124C3.21255 23.1892 2.94491 20.2645 3.59812 17.4764L2.13766 17.1342C1.41051 20.238 1.70845 23.4938 2.98686 26.414L4.36096 25.8124Z" fill="white"/>
<path d="M11.967 26V17.068L10.07 18.209V17.054L11.967 15.92H13.01V26H11.967ZM18.6401 26.21C18.1174 26.21 17.6344 26.1027 17.1911 25.888C16.7478 25.6733 16.3698 25.377 16.0571 24.999C15.7444 24.621 15.5204 24.187 15.3851 23.697L16.3721 23.431C16.4608 23.795 16.6218 24.11 16.8551 24.376C17.0884 24.6373 17.3614 24.8403 17.6741 24.985C17.9914 25.1297 18.3228 25.202 18.6681 25.202C19.1161 25.202 19.5174 25.0947 19.8721 24.88C20.2314 24.6607 20.5161 24.3713 20.7261 24.012C20.9361 23.6527 21.0411 23.2583 21.0411 22.829C21.0411 22.3857 20.9314 21.9867 20.7121 21.632C20.4928 21.2727 20.2034 20.988 19.8441 20.778C19.4848 20.568 19.0928 20.463 18.6681 20.463C18.1921 20.463 17.7814 20.568 17.4361 20.778C17.0908 20.9833 16.8154 21.2423 16.6101 21.555L15.6721 21.163L15.9801 15.92H21.3631V16.907H16.4351L16.9461 16.424L16.6731 20.897L16.4141 20.554C16.7034 20.2227 17.0534 19.9637 17.4641 19.777C17.8748 19.5903 18.3064 19.497 18.7591 19.497C19.3798 19.497 19.9398 19.6463 20.4391 19.945C20.9384 20.239 21.3351 20.638 21.6291 21.142C21.9231 21.646 22.0701 22.2083 22.0701 22.829C22.0701 23.445 21.9138 24.0097 21.6011 24.523C21.2884 25.0317 20.8731 25.44 20.3551 25.748C19.8371 26.056 19.2654 26.21 18.6401 26.21Z" fill="white"/>
</svg>
